<?xml version="1.0" encoding="UTF-8" ?>
<!DOCTYPE svg PUBLIC "-//W3C//DTD SVG 1.1//EN" "http://www.w3.org/Graphics/SVG/1.1/DTD/svg11.dtd">
<svg width="1000pt" height="534pt" viewBox="0 0 1000 534" version="1.1" xmlns="http://www.w3.org/2000/svg">
<g id="#ede300ff">
<path fill="#ede300" opacity="1.00" d=" M 311.59 0.00 L 498.68 0.00 C 522.89 1.24 547.65 4.35 569.62 15.25 C 584.69 22.62 598.08 33.84 606.87 48.23 C 618.49 66.89 622.49 89.31 622.25 111.02 C 622.38 133.15 618.47 156.03 606.54 175.03 C 589.01 171.60 571.36 168.81 553.67 166.35 C 562.01 151.69 564.59 134.58 565.05 117.94 C 565.45 98.03 564.83 77.21 556.07 58.92 C 549.53 44.93 537.46 33.89 523.26 27.96 C 503.05 19.19 480.58 19.13 458.94 19.38 C 449.26 19.66 438.48 17.91 430.01 23.73 C 422.26 29.12 420.23 39.18 419.93 48.03 C 419.52 85.79 419.63 123.56 419.24 161.32 C 400.33 163.22 381.45 165.48 362.67 168.37 C 363.04 133.26 362.72 98.13 362.82 63.02 C 362.79 56.27 363.05 49.49 362.23 42.77 C 361.70 35.44 357.75 28.38 351.27 24.71 C 340.28 18.48 327.21 18.08 314.90 17.66 C 313.50 17.48 311.49 17.92 310.84 16.25 C 308.06 11.24 308.43 4.76 311.59 0.00 Z" />
<path fill="#ede300" opacity="1.00" d=" M 755.51 56.70 C 793.59 127.97 831.31 199.43 869.26 270.77 C 879.44 290.17 889.97 309.39 899.97 328.88 C 882.41 302.08 858.60 279.87 832.60 261.38 C 814.92 248.88 796.12 237.99 776.63 228.55 C 775.52 227.97 774.23 227.51 773.75 226.26 C 767.69 214.94 761.67 203.58 755.67 192.23 C 751.50 199.34 747.86 206.76 743.92 214.01 C 724.07 205.91 703.73 199.02 683.16 192.97 C 707.30 147.56 731.42 102.14 755.51 56.70 Z" />
<path fill="#ede300" opacity="1.00" d=" M 17.73 59.91 C 109.80 59.87 201.86 60.01 293.93 59.84 C 293.83 75.26 293.85 90.69 293.92 106.11 C 269.97 137.13 245.89 168.05 221.90 199.03 C 220.33 200.80 219.30 203.35 216.89 204.13 C 163.21 222.63 110.83 248.00 68.22 286.13 C 116.30 224.65 164.36 163.15 212.41 101.64 C 174.27 101.62 136.13 101.61 97.99 101.64 C 88.24 101.91 78.01 101.95 69.01 106.19 C 62.81 109.12 58.84 115.34 57.25 121.85 C 54.08 134.32 55.11 147.32 54.89 160.06 C 42.49 160.07 30.08 160.05 17.68 160.07 C 17.82 126.69 17.71 93.30 17.73 59.91 Z" />
<path fill="#ede300" opacity="1.00" d=" M 429.54 366.88 C 440.35 366.94 451.15 366.89 461.96 366.91 C 461.72 367.40 461.25 368.38 461.01 368.87 C 460.70 369.15 460.08 369.72 459.77 370.00 C 459.57 370.13 459.17 370.38 458.96 370.50 C 458.06 372.24 457.29 374.04 456.52 375.84 C 449.43 376.24 442.32 376.20 435.23 375.87 C 433.84 372.58 431.91 369.56 429.54 366.88 Z" />
<path fill="#ede300" opacity="1.00" d=" M 502.96 367.58 C 507.23 366.49 511.64 366.89 516.00 366.86 C 522.82 366.83 529.65 366.91 536.48 366.81 C 533.72 369.44 532.54 373.33 529.97 375.97 C 523.35 376.26 516.68 376.25 510.07 375.97 C 507.80 373.81 507.31 370.14 504.46 368.38 C 504.09 368.18 503.34 367.78 502.96 367.58 Z" />
</g>
<g id="#01010090">
<path fill="#010100" opacity="0.56" d=" M 362.23 42.77 C 363.05 49.49 362.79 56.27 362.82 63.02 C 362.72 98.13 363.04 133.26 362.67 168.37 C 362.10 159.59 362.54 150.78 362.41 141.99 C 362.29 108.92 362.63 75.84 362.23 42.77 Z" />
<path fill="#010100" opacity="0.56" d=" M 419.17 181.85 C 419.29 181.75 419.54 181.56 419.67 181.46 C 419.40 193.78 419.49 206.11 419.39 218.43 C 440.03 218.42 460.68 218.48 481.33 218.38 C 460.61 219.12 439.86 218.56 419.13 218.69 C 419.11 206.41 419.12 194.13 419.17 181.85 Z" />
<path fill="#010100" opacity="0.56" d=" M 516.52 330.05 C 518.15 329.51 519.77 328.93 521.41 328.39 C 525.09 336.72 527.91 345.41 531.25 353.89 C 533.11 358.32 534.12 363.17 537.02 367.10 C 535.31 370.50 532.57 373.46 531.06 377.06 C 523.78 376.85 516.48 377.24 509.21 376.90 C 507.18 374.34 505.97 371.24 504.46 368.38 C 507.31 370.14 507.80 373.81 510.07 375.97 C 516.68 376.25 523.35 376.26 529.97 375.97 C 532.54 373.33 533.72 369.44 536.48 366.81 C 529.65 366.91 522.82 366.83 516.00 366.86 C 511.64 366.89 507.23 366.49 502.96 367.58 C 503.94 365.74 504.90 363.90 505.60 361.94 C 509.01 351.32 512.70 340.79 516.11 330.18 L 516.52 330.05 M 520.01 365.99 C 524.62 366.00 529.23 366.00 533.84 366.00 C 529.27 353.93 524.55 341.91 520.29 329.72 C 519.66 341.79 520.15 353.90 520.01 365.99 M 506.14 366.00 C 510.09 366.00 514.04 366.00 517.99 365.99 C 517.93 354.47 518.16 342.95 517.86 331.44 C 513.72 342.88 510.20 354.53 506.14 366.00 Z" />
</g>
<g id="#000000ff">
<path fill="#000000" opacity="1.00" d=" M 17.57 59.72 C 105.04 59.73 192.50 59.72 279.97 59.72 C 284.62 59.75 289.28 59.62 293.93 59.84 C 201.86 60.01 109.80 59.87 17.73 59.91 C 17.71 93.30 17.82 126.69 17.68 160.07 C 17.43 126.62 17.65 93.17 17.57 59.72 Z" />
<path fill="#000000" opacity="1.00" d=" M 361.27 205.51 C 361.61 205.34 362.29 205.00 362.63 204.83 C 363.08 233.54 362.70 262.28 362.83 291.00 C 362.69 318.46 363.09 345.92 362.62 373.38 C 362.55 320.24 362.59 267.11 362.60 213.97 C 362.41 211.25 363.24 208.11 361.76 205.70 L 361.27 205.51 Z" />
<path fill="#000000" opacity="1.00" d=" M 478.73 317.95 C 479.78 315.39 480.70 312.71 482.44 310.51 C 483.73 312.91 483.98 316.15 486.00 318.02 C 495.90 319.45 505.85 320.67 515.79 321.84 C 517.50 320.01 520.82 319.09 522.23 321.78 C 523.91 324.16 520.05 326.03 521.41 328.39 C 519.77 328.93 518.15 329.51 516.52 330.05 C 516.89 328.86 517.29 327.68 517.68 326.50 C 517.24 326.06 516.36 325.18 515.92 324.74 C 506.02 324.66 496.12 324.73 486.22 324.71 C 487.64 350.27 489.14 375.83 490.58 401.39 C 484.88 401.39 479.17 401.39 473.47 401.38 C 474.92 375.83 476.41 350.27 477.83 324.71 C 468.55 324.72 459.28 324.68 450.00 324.71 C 448.42 324.41 447.39 325.73 446.27 326.55 C 450.70 337.60 454.72 348.80 458.94 359.94 C 459.97 362.41 460.43 365.44 462.92 366.95 C 462.46 367.58 461.98 368.20 461.48 368.80 L 461.01 368.87 C 461.25 368.38 461.72 367.40 461.96 366.91 C 451.15 366.89 440.35 366.94 429.54 366.88 C 431.91 369.56 433.84 372.58 435.23 375.87 C 442.32 376.20 449.43 376.24 456.52 375.84 C 457.29 374.04 458.06 372.24 458.96 370.50 C 459.17 370.38 459.57 370.13 459.77 370.00 L 459.98 370.64 C 459.25 372.77 458.05 374.80 456.62 376.54 C 449.48 377.01 442.24 376.91 435.09 376.59 C 432.89 373.61 431.52 369.90 428.75 367.24 C 429.52 366.18 430.47 365.20 430.87 363.92 C 435.03 351.58 439.04 339.20 443.29 326.90 C 442.18 325.28 440.54 323.11 442.29 321.30 C 443.81 319.14 446.70 320.18 448.25 321.73 C 458.42 320.62 468.59 319.35 478.73 317.95 M 443.00 323.06 C 442.23 324.68 444.61 325.12 445.52 325.90 C 445.58 325.59 445.69 324.95 445.74 324.64 C 445.23 324.56 444.21 324.39 443.70 324.31 C 444.44 323.19 445.21 322.09 445.94 320.96 C 444.99 321.62 443.02 321.55 443.00 323.06 M 518.01 321.98 C 520.59 322.23 520.48 324.85 517.97 325.11 C 518.86 325.31 520.01 325.76 520.64 324.75 C 522.70 323.21 519.52 320.00 518.01 321.98 M 445.46 365.77 C 450.01 366.75 455.06 365.88 459.80 366.18 C 455.05 353.62 450.47 340.99 445.54 328.50 C 445.23 340.91 445.37 353.35 445.46 365.77 M 431.59 366.17 C 435.70 366.17 439.81 366.17 443.93 366.17 C 443.82 354.30 444.13 342.42 443.82 330.56 C 439.13 342.18 435.77 354.34 431.59 366.17 Z" />
<path fill="#000000" opacity="1.00" d=" M 111.78 379.63 C 112.00 379.29 112.44 378.62 112.66 378.28 L 112.77 378.77 C 115.74 380.56 119.68 379.40 123.06 379.70 C 156.39 379.54 189.74 380.00 223.06 379.46 C 223.23 379.46 223.57 379.46 223.74 379.46 C 223.58 379.62 223.24 379.95 223.07 380.11 C 217.39 379.73 211.69 379.92 206.00 379.89 C 176.34 379.89 146.69 379.88 117.04 379.90 C 115.28 379.88 113.53 379.77 111.78 379.63 Z" />
<path fill="#000000" opacity="1.00" d=" M 454.21 403.32 C 468.30 403.65 482.42 403.78 496.53 403.63 C 497.79 405.60 499.03 407.57 500.28 409.55 C 491.22 409.60 482.15 409.58 473.09 409.56 C 472.60 407.62 471.92 405.75 471.18 403.90 C 465.53 403.45 459.79 404.28 454.21 403.32 Z" />
<path fill="#000000" opacity="1.00" d=" M 473.46 411.65 C 482.34 412.09 491.24 411.58 500.13 411.85 C 502.34 411.69 503.38 414.03 504.84 415.27 C 494.34 415.51 483.84 415.19 473.34 415.42 C 473.41 414.16 473.45 412.90 473.46 411.65 Z" />
<path fill="#000000" opacity="1.00" d=" M 472.80 417.27 C 483.75 417.27 494.70 417.26 505.64 417.27 C 506.82 418.72 508.00 420.17 509.18 421.62 C 496.41 421.72 483.65 421.59 470.88 421.69 C 471.57 420.24 472.25 418.78 472.80 417.27 Z" />
<path fill="#000000" opacity="1.00" d=" M 0.00 459.44 C 29.68 459.18 59.36 459.40 89.04 459.33 C 392.69 459.33 696.35 459.33 1000.00 459.33 L 1000.00 471.22 C 666.67 471.20 333.33 471.25 0.00 471.19 L 0.00 459.44 Z" />
<path fill="#000000" opacity="1.00" d=" M 53.64 497.45 C 56.99 497.44 60.33 497.44 63.67 497.45 C 67.39 507.06 70.87 516.76 74.68 526.33 C 75.30 528.26 76.62 529.74 78.63 530.30 C 78.67 531.03 78.74 532.49 78.77 533.22 C 73.12 533.10 67.47 533.11 61.82 533.21 C 61.82 532.41 61.83 530.80 61.84 530.00 C 63.38 529.58 65.54 529.94 66.23 528.09 C 66.04 525.78 65.11 523.65 64.32 521.51 C 60.10 521.54 55.88 521.55 51.65 521.49 C 50.85 523.67 49.99 525.85 49.58 528.16 C 49.86 530.07 52.46 529.35 53.69 530.02 C 53.68 530.83 53.67 532.43 53.67 533.23 C 48.46 533.10 43.25 533.11 38.04 533.22 C 38.05 532.53 38.07 531.16 38.08 530.47 C 39.63 529.65 41.24 528.71 41.77 526.93 C 45.84 517.15 49.66 507.26 53.64 497.45 M 53.34 516.93 C 56.46 516.89 59.58 516.89 62.70 516.94 C 61.32 512.47 59.79 508.05 58.28 503.62 C 55.87 507.72 54.98 512.50 53.34 516.93 Z" />
<path fill="#000000" opacity="1.00" d=" M 245.50 497.45 C 248.84 497.44 252.18 497.44 255.52 497.45 C 259.35 507.29 262.83 517.27 266.86 527.02 C 267.38 528.90 269.09 529.73 270.73 530.48 C 270.63 531.40 270.52 532.34 270.41 533.28 C 264.84 533.05 259.26 533.13 253.68 533.22 C 253.69 532.42 253.71 530.82 253.71 530.02 C 254.99 529.53 256.78 529.92 257.72 528.76 C 258.39 526.25 256.90 523.85 256.19 521.53 C 252.08 521.61 247.97 521.35 243.87 521.61 C 242.31 523.28 241.98 525.92 241.48 528.12 C 241.56 530.07 244.34 529.34 245.54 530.04 C 245.54 530.83 245.54 532.42 245.54 533.22 C 240.24 533.10 234.94 533.13 229.64 533.21 C 229.00 529.97 232.97 529.45 233.70 526.75 C 237.73 517.02 241.53 507.20 245.50 497.45 M 249.67 503.61 C 248.13 508.02 246.68 512.46 245.10 516.86 C 248.27 516.89 251.44 516.90 254.62 516.92 C 252.92 512.51 252.07 507.73 249.67 503.61 Z" />
<path fill="#000000" opacity="1.00" d=" M 658.53 497.46 C 661.87 497.44 665.22 497.44 668.57 497.44 C 672.77 507.98 676.25 518.82 680.94 529.16 C 681.84 529.53 682.75 529.90 683.68 530.29 C 683.69 530.99 683.71 532.40 683.72 533.10 C 678.05 533.22 672.39 533.07 666.72 533.22 C 666.73 532.41 666.75 530.81 666.76 530.00 C 668.17 529.49 670.71 530.07 670.98 527.98 C 671.00 525.70 669.94 523.62 669.23 521.51 C 665.02 521.54 660.81 521.55 656.60 521.47 C 655.75 523.68 654.85 525.90 654.47 528.26 C 654.97 530.01 657.28 529.42 658.57 530.02 C 658.58 530.82 658.60 532.42 658.61 533.22 C 653.29 533.10 647.98 533.13 642.67 533.20 C 642.06 529.98 645.98 529.46 646.73 526.78 C 650.77 517.05 654.58 507.22 658.53 497.46 M 662.75 503.59 C 661.18 508.01 659.68 512.46 658.22 516.92 C 661.35 516.89 664.49 516.89 667.63 516.92 C 666.00 512.48 665.06 507.75 662.75 503.59 Z" />
<path fill="#000000" opacity="1.00" d=" M 819.00 503.99 C 824.57 495.68 837.15 494.63 845.21 499.74 C 852.83 504.93 854.00 515.85 850.97 523.96 C 849.00 529.36 843.84 532.80 838.39 534.00 L 830.50 534.00 C 825.50 533.11 820.68 530.35 818.28 525.74 C 814.85 519.04 814.96 510.41 819.00 503.99 M 830.33 502.45 C 826.68 504.17 825.07 508.31 824.56 512.07 C 824.05 516.73 824.33 521.87 827.14 525.82 C 830.01 529.92 836.58 530.53 840.16 527.03 C 843.38 523.98 844.09 519.25 844.14 515.03 C 843.96 511.06 843.17 506.68 840.12 503.86 C 837.57 501.40 833.48 500.96 830.33 502.45 Z" />
<path fill="#000000" opacity="1.00" d=" M 1.83 497.76 C 11.68 497.75 21.53 497.75 31.39 497.75 C 31.37 499.46 31.36 501.18 31.34 502.90 C 24.46 511.43 17.63 520.00 10.82 528.59 C 15.65 528.51 20.52 528.92 25.32 528.30 C 28.16 527.89 27.49 524.37 27.97 522.37 C 29.42 522.36 30.86 522.35 32.31 522.36 C 32.27 525.95 32.27 529.56 32.30 533.16 C 22.04 533.17 11.79 533.16 1.53 533.16 C 1.54 531.48 1.56 529.81 1.58 528.14 C 8.52 519.59 15.50 511.07 22.28 502.39 C 17.49 502.52 12.62 501.91 7.88 502.75 C 6.17 504.08 6.57 506.47 6.17 508.38 C 4.72 508.37 3.27 508.38 1.82 508.38 C 1.88 504.84 1.88 501.30 1.83 497.76 Z" />
<path fill="#000000" opacity="1.00" d=" M 84.40 497.69 C 89.49 497.85 94.59 497.78 99.68 497.76 C 104.16 506.93 108.97 515.94 113.16 525.25 C 113.28 519.49 112.74 513.75 112.78 507.99 C 112.65 505.98 112.92 503.83 112.00 501.99 C 110.75 501.41 109.39 501.18 108.08 500.86 C 108.01 500.07 107.87 498.49 107.80 497.70 C 113.12 497.83 118.45 497.84 123.78 497.70 C 123.75 498.50 123.70 500.10 123.67 500.90 C 121.93 501.33 118.92 501.34 119.26 503.96 C 119.05 513.71 119.26 523.47 119.18 533.22 C 115.67 533.22 112.16 533.21 108.65 533.28 C 103.96 523.90 99.24 514.51 95.20 504.83 C 95.08 512.42 95.06 520.03 95.51 527.61 C 95.69 529.75 98.40 529.55 99.92 530.00 C 99.97 530.80 100.08 532.40 100.13 533.20 C 94.90 533.12 89.66 533.10 84.43 533.22 C 84.43 532.42 84.45 530.83 84.45 530.03 C 85.76 529.57 87.34 529.67 88.48 528.79 C 89.62 525.33 88.96 521.60 89.11 518.02 C 88.92 513.01 89.53 507.94 88.75 502.97 C 88.43 500.97 85.84 501.53 84.48 500.90 C 84.46 500.10 84.42 498.50 84.40 497.69 Z" />
<path fill="#000000" opacity="1.00" d=" M 130.28 508.39 C 130.33 504.82 130.33 501.25 130.42 497.69 C 140.22 497.84 150.02 497.69 159.83 497.77 C 159.66 500.04 160.34 502.72 158.49 504.48 C 152.03 512.51 145.64 520.59 139.18 528.60 C 143.96 528.53 148.78 528.88 153.55 528.35 C 156.53 528.09 155.98 524.47 156.41 522.35 C 157.84 522.35 159.28 522.35 160.73 522.36 C 160.67 525.94 160.67 529.52 160.72 533.11 C 150.42 533.23 140.12 533.14 129.82 533.16 C 130.00 531.09 129.41 528.66 130.98 527.00 C 137.59 518.78 144.21 510.57 150.85 502.38 C 146.15 502.49 141.40 502.01 136.72 502.64 C 134.45 503.51 135.08 506.48 134.57 508.39 C 133.14 508.38 131.71 508.38 130.28 508.39 Z" />
<path fill="#000000" opacity="1.00" d=" M 168.18 497.69 C 173.84 497.84 179.49 497.82 185.15 497.71 C 185.14 498.51 185.11 500.10 185.10 500.90 C 183.72 501.25 182.21 501.31 180.98 502.10 C 180.12 505.31 180.60 508.68 180.50 511.97 C 180.64 517.32 180.23 522.68 180.69 528.02 C 181.38 529.82 183.61 529.54 185.11 530.03 C 185.12 530.82 185.13 532.41 185.14 533.20 C 179.50 533.12 173.86 533.10 168.23 533.22 C 168.23 532.42 168.24 530.82 168.24 530.01 C 169.93 529.62 173.05 529.54 172.69 527.00 C 172.82 519.31 172.86 511.61 172.67 503.92 C 172.98 501.32 170.03 501.34 168.29 500.91 C 168.26 500.11 168.21 498.50 168.18 497.69 Z" />
<path fill="#000000" opacity="1.00" d=" M 192.44 497.75 C 199.97 497.92 207.54 497.39 215.05 498.04 C 219.62 498.27 223.09 502.53 222.74 507.04 C 223.08 510.36 220.60 512.85 218.05 514.52 C 219.93 515.71 222.17 516.67 223.25 518.75 C 225.31 522.88 224.19 528.63 220.19 531.20 C 217.48 533.01 214.08 533.00 210.94 533.16 C 204.82 533.22 198.69 533.10 192.57 533.21 C 192.53 532.11 192.50 531.02 192.48 529.93 C 194.25 529.49 197.16 529.56 196.99 526.98 C 197.23 519.33 197.23 511.64 196.99 504.00 C 197.15 501.41 194.27 501.34 192.47 500.96 C 192.47 500.16 192.45 498.56 192.44 497.75 M 204.76 502.02 C 204.76 505.64 204.76 509.26 204.76 512.88 C 207.11 512.78 209.58 513.09 211.85 512.27 C 215.63 510.41 215.49 504.10 211.60 502.47 C 209.38 501.87 207.04 502.10 204.76 502.02 M 204.74 517.22 C 204.76 521.13 204.75 525.04 204.80 528.95 C 207.36 528.84 209.99 529.09 212.48 528.41 C 216.87 526.68 216.86 519.47 212.54 517.67 C 210.02 516.89 207.33 517.25 204.74 517.22 Z" />
<path fill="#000000" opacity="1.00" d=" M 276.26 497.75 C 283.86 497.98 291.54 497.23 299.10 498.24 C 303.79 498.79 307.33 503.38 306.78 508.05 C 306.78 511.34 304.32 513.90 301.47 515.19 C 306.45 517.72 305.38 524.01 307.75 528.25 C 308.58 529.71 310.43 529.58 311.83 530.02 C 311.84 530.81 311.84 532.40 311.85 533.19 C 308.15 533.13 304.45 533.13 300.75 533.19 C 299.06 529.00 298.62 524.40 296.78 520.28 C 295.35 517.14 291.38 517.83 288.59 517.64 C 288.63 521.09 288.37 524.55 288.77 527.99 C 289.44 529.82 291.65 529.54 293.16 530.03 C 293.17 530.82 293.18 532.41 293.19 533.21 C 287.55 533.11 281.91 533.10 276.28 533.22 C 276.29 532.42 276.32 530.82 276.34 530.02 C 277.99 529.51 281.02 529.70 280.74 527.13 C 280.90 519.44 280.88 511.72 280.75 504.03 C 281.11 501.50 278.09 501.28 276.35 501.01 C 276.33 500.19 276.28 498.56 276.26 497.75 M 288.61 501.83 C 288.57 505.73 288.58 509.63 288.58 513.53 C 291.74 513.29 296.06 514.14 298.01 510.93 C 299.23 508.31 299.06 504.32 296.25 502.79 C 293.86 501.75 291.15 502.02 288.61 501.83 Z" />
<path fill="#000000" opacity="1.00" d=" M 338.24 497.75 C 345.87 498.00 353.56 497.21 361.14 498.26 C 366.13 498.87 369.63 504.07 368.63 508.95 C 368.33 511.96 365.80 513.88 363.42 515.35 C 368.53 517.68 367.25 524.16 369.72 528.31 C 370.56 529.74 372.41 529.57 373.80 530.01 C 373.80 530.80 373.81 532.39 373.82 533.18 C 370.12 533.13 366.42 533.12 362.73 533.22 C 360.97 529.03 360.57 524.42 358.72 520.29 C 357.30 517.14 353.32 517.82 350.53 517.65 C 350.57 521.11 350.33 524.59 350.72 528.04 C 351.44 529.81 353.60 529.55 355.10 530.02 C 355.11 530.82 355.12 532.41 355.12 533.21 C 349.50 533.12 343.88 533.09 338.27 533.23 C 338.26 532.43 338.24 530.83 338.23 530.03 C 339.94 529.60 343.01 529.57 342.71 527.02 C 342.84 519.36 342.86 511.69 342.71 504.03 C 343.02 501.46 339.99 501.30 338.24 500.97 C 338.24 500.16 338.24 498.55 338.24 497.75 M 350.56 501.83 C 350.52 505.73 350.52 509.63 350.53 513.54 C 353.70 513.30 358.02 514.12 359.98 510.91 C 361.14 508.27 361.00 504.24 358.12 502.76 C 355.75 501.75 353.07 502.02 350.56 501.83 Z" />
<path fill="#000000" opacity="1.00" d=" M 380.08 497.75 C 389.81 497.75 399.54 497.75 409.26 497.75 C 409.26 501.06 409.27 504.36 409.31 507.67 C 408.36 507.68 406.46 507.71 405.51 507.72 C 405.09 506.09 405.05 504.28 404.10 502.85 C 400.32 501.65 396.22 502.48 392.31 502.28 C 392.33 505.79 392.33 509.31 392.32 512.83 C 394.30 512.72 396.28 512.60 398.26 512.43 C 398.51 511.08 398.75 509.75 399.00 508.41 C 399.87 508.40 401.63 508.37 402.50 508.36 C 402.37 512.72 402.37 517.08 402.50 521.45 C 401.66 521.43 399.97 521.39 399.13 521.37 C 398.84 520.15 398.50 518.95 398.09 517.79 C 396.57 516.27 394.19 517.04 392.30 516.92 C 392.34 520.84 392.34 524.76 392.32 528.68 C 396.25 528.56 400.28 529.13 404.16 528.23 C 405.54 526.68 405.38 524.45 405.82 522.54 C 407.07 522.47 408.33 522.42 409.60 522.38 C 409.53 525.93 409.53 529.49 409.62 533.04 C 399.80 533.32 389.97 533.08 380.14 533.17 C 380.11 532.37 380.03 530.77 379.99 529.97 C 381.78 529.62 384.83 529.44 384.55 526.88 C 384.69 519.26 384.71 511.63 384.54 504.02 C 384.77 501.50 381.84 501.28 380.06 501.00 C 380.06 500.19 380.08 498.56 380.08 497.75 Z" />
<path fill="#000000" opacity="1.00" d=" M 415.75 497.70 C 421.23 497.83 426.72 497.83 432.20 497.70 C 432.19 498.50 432.18 500.12 432.17 500.93 C 430.47 501.17 428.69 501.31 427.39 502.56 C 430.20 510.44 433.58 518.12 435.70 526.24 C 437.78 518.72 440.92 511.55 443.01 504.05 C 444.00 501.52 440.76 501.18 439.11 500.94 C 439.04 500.13 438.89 498.52 438.82 497.71 C 444.00 497.82 449.18 497.84 454.36 497.70 C 454.32 498.48 454.24 500.06 454.20 500.85 C 452.54 501.55 450.83 502.44 450.41 504.36 C 446.92 513.94 443.22 523.45 439.73 533.04 C 436.82 533.18 433.91 533.19 431.00 533.13 C 426.69 522.70 422.89 512.05 418.14 501.81 C 417.55 501.61 416.39 501.20 415.81 500.99 C 415.79 500.17 415.76 498.52 415.75 497.70 Z" />
<path fill="#000000" opacity="1.00" d=" M 459.85 497.76 C 469.63 497.74 479.40 497.75 489.18 497.76 C 489.17 501.07 489.19 504.38 489.22 507.70 C 487.93 507.68 486.64 507.66 485.36 507.65 C 484.73 506.01 485.22 503.58 483.47 502.59 C 479.76 501.92 475.96 502.36 472.23 502.28 C 472.25 505.80 472.25 509.31 472.24 512.84 C 474.23 512.72 476.22 512.58 478.21 512.38 C 478.44 511.05 478.67 509.71 478.90 508.39 C 479.77 508.38 481.52 508.37 482.39 508.37 C 482.28 512.72 482.29 517.08 482.40 521.44 C 481.56 521.43 479.89 521.40 479.05 521.39 C 478.60 520.05 478.47 518.58 477.68 517.40 C 475.98 516.58 474.04 516.93 472.24 516.85 C 472.25 520.79 472.25 524.74 472.24 528.69 C 476.20 528.54 480.29 529.18 484.18 528.18 C 485.32 526.49 485.34 524.35 485.81 522.42 C 486.73 522.43 488.58 522.43 489.50 522.44 C 489.45 526.01 489.45 529.59 489.47 533.16 C 479.60 533.16 469.74 533.17 459.87 533.16 C 459.87 532.37 459.87 530.78 459.87 529.98 C 461.65 529.64 464.67 529.45 464.44 526.91 C 464.54 519.10 464.68 511.26 464.37 503.45 C 464.19 501.23 461.46 501.38 459.88 500.97 C 459.87 500.17 459.86 498.56 459.85 497.76 Z" />
<path fill="#000000" opacity="1.00" d=" M 497.40 497.70 C 502.38 497.81 507.36 497.92 512.34 497.60 C 517.34 506.48 521.55 515.78 526.13 524.87 C 526.11 517.71 525.88 510.52 525.50 503.37 C 525.34 501.17 522.67 501.40 521.14 500.94 C 521.04 500.13 520.85 498.52 520.75 497.71 C 526.09 497.82 531.42 497.85 536.76 497.69 C 536.75 498.49 536.72 500.09 536.71 500.90 C 534.97 501.36 531.95 501.27 532.27 503.90 C 532.03 513.67 532.26 523.44 532.18 533.22 C 528.67 533.21 525.18 533.21 521.68 533.30 C 516.95 523.94 512.25 514.53 508.21 504.84 C 508.02 512.41 508.12 520.01 508.49 527.57 C 508.67 529.72 511.35 529.56 512.90 530.00 C 512.91 530.80 512.92 532.41 512.93 533.21 C 507.76 533.11 502.60 533.11 497.44 533.22 C 497.44 532.42 497.46 530.82 497.47 530.03 C 498.77 529.54 500.48 529.72 501.54 528.67 C 502.54 525.22 501.96 521.58 502.09 518.05 C 501.92 513.05 502.48 508.01 501.76 503.05 C 501.51 501.02 498.85 501.51 497.51 500.90 C 497.48 500.10 497.42 498.50 497.40 497.70 Z" />
<path fill="#000000" opacity="1.00" d=" M 543.21 497.74 C 548.71 497.82 554.21 497.82 559.72 497.70 C 559.69 498.47 559.64 500.00 559.62 500.77 C 558.32 501.09 557.06 501.48 555.82 501.94 C 554.63 504.79 555.27 508.01 555.12 511.03 C 555.34 515.83 554.59 520.77 555.75 525.48 C 557.61 529.12 562.74 529.36 566.16 528.09 C 569.34 526.77 569.71 522.97 569.68 519.99 C 569.63 514.42 569.95 508.82 569.51 503.27 C 569.28 501.23 566.58 501.47 565.18 500.72 C 565.15 499.96 565.11 498.46 565.08 497.71 C 570.12 497.81 575.17 497.82 580.21 497.71 C 580.19 498.45 580.15 499.92 580.13 500.66 C 578.97 501.45 576.56 501.31 576.56 503.14 C 575.75 510.70 577.16 518.40 575.73 525.92 C 574.80 530.44 570.35 532.82 566.28 534.00 L 557.82 534.00 C 553.68 532.95 548.88 530.83 547.93 526.17 C 546.47 518.26 548.25 510.09 546.93 502.19 C 545.76 501.56 544.52 501.11 543.31 500.63 C 543.28 499.90 543.23 498.46 543.21 497.74 Z" />
<path fill="#000000" opacity="1.00" d=" M 587.07 497.76 C 596.80 497.75 606.53 497.75 616.26 497.75 C 616.25 501.06 616.27 504.36 616.31 507.67 C 615.37 507.69 613.47 507.71 612.52 507.72 C 611.92 506.04 612.30 503.63 610.58 502.60 C 606.88 501.90 603.07 502.37 599.32 502.28 C 599.34 505.79 599.33 509.31 599.33 512.83 C 601.31 512.72 603.30 512.60 605.29 512.42 C 605.51 511.08 605.74 509.75 605.98 508.42 C 606.86 508.40 608.61 508.37 609.49 508.36 C 609.37 512.72 609.38 517.08 609.50 521.45 C 608.65 521.43 606.97 521.39 606.13 521.37 C 605.59 520.06 605.69 518.42 604.68 517.36 C 603.00 516.54 601.09 516.95 599.31 516.89 C 599.34 520.82 599.34 524.75 599.32 528.68 C 603.26 528.54 607.32 529.17 611.19 528.20 C 612.54 526.64 612.38 524.43 612.82 522.53 C 614.07 522.47 615.33 522.43 616.60 522.39 C 616.53 525.94 616.53 529.49 616.62 533.04 C 606.72 533.30 596.82 533.12 586.92 533.14 C 586.93 532.36 586.94 530.78 586.95 530.00 C 588.70 529.61 591.78 529.49 591.54 526.96 C 591.63 519.12 591.79 511.25 591.45 503.42 C 591.38 501.18 588.61 501.48 587.09 500.98 C 587.09 500.18 587.08 498.56 587.07 497.76 Z" />
<path fill="#000000" opacity="1.00" d=" M 686.69 497.70 C 692.20 497.83 697.72 497.82 703.23 497.70 C 703.22 498.46 703.18 499.99 703.16 500.75 C 701.47 501.37 698.44 501.39 698.68 503.96 C 698.49 510.64 698.30 517.37 698.85 524.03 C 699.47 528.82 705.68 529.51 709.39 528.21 C 713.08 526.78 713.24 522.32 713.22 518.97 C 713.08 513.65 713.53 508.29 712.95 503.00 C 712.40 501.14 710.02 501.43 708.62 500.75 C 708.59 499.99 708.54 498.46 708.52 497.70 C 713.50 497.82 718.49 497.85 723.48 497.66 C 723.55 498.61 723.62 499.57 723.70 500.53 C 722.20 501.38 719.61 501.68 719.89 503.96 C 719.35 511.15 720.40 518.43 719.30 525.58 C 718.45 530.37 713.79 532.97 709.44 534.00 L 701.56 534.00 C 697.46 533.09 692.75 531.11 691.55 526.66 C 689.92 518.90 691.50 510.90 690.60 503.08 C 690.50 501.16 688.01 501.46 686.78 500.73 C 686.76 499.97 686.71 498.46 686.69 497.70 Z" />
<path fill="#000000" opacity="1.00" d=" M 730.07 497.73 C 740.76 498.03 751.47 497.98 762.17 497.74 C 762.10 501.41 762.09 505.07 762.17 508.74 C 761.21 508.76 759.28 508.78 758.32 508.80 C 757.94 506.80 758.67 503.62 756.29 502.66 C 754.25 502.22 752.15 502.36 750.09 502.29 C 750.14 510.55 749.95 518.81 750.18 527.07 C 750.00 529.85 753.54 529.56 755.39 529.93 C 755.40 531.03 755.41 532.13 755.43 533.24 C 749.22 533.08 743.02 533.12 736.81 533.21 C 736.82 532.41 736.82 530.80 736.82 529.99 C 738.72 529.52 742.23 529.94 742.20 527.07 C 742.53 518.86 742.16 510.64 742.37 502.42 C 739.95 502.52 737.29 501.89 735.08 503.07 C 733.78 504.58 734.33 506.88 733.97 508.74 C 732.66 508.76 731.36 508.78 730.07 508.81 C 730.09 505.11 730.10 501.42 730.07 497.73 Z" />
<path fill="#000000" opacity="1.00" d=" M 769.03 497.70 C 774.65 497.84 780.27 497.84 785.90 497.70 C 785.87 498.51 785.82 500.12 785.80 500.93 C 784.27 501.42 781.54 501.13 781.48 503.36 C 781.16 506.49 781.35 509.64 781.32 512.78 C 786.25 512.80 791.19 512.80 796.13 512.77 C 796.09 509.55 796.40 506.29 795.84 503.11 C 795.59 501.03 792.96 501.51 791.56 500.91 C 791.54 500.10 791.49 498.49 791.46 497.68 C 797.08 497.85 802.71 497.86 808.34 497.68 C 808.33 498.49 808.31 500.10 808.30 500.91 C 806.81 501.44 804.47 501.03 803.97 502.99 C 803.48 509.97 803.91 517.00 803.74 524.00 C 803.92 525.73 803.32 527.90 804.84 529.19 C 805.97 529.53 807.13 529.81 808.32 530.03 C 808.32 530.82 808.33 532.42 808.34 533.22 C 802.72 533.11 797.11 533.11 791.49 533.22 C 791.50 532.42 791.51 530.83 791.51 530.03 C 792.89 529.39 795.47 529.92 795.83 527.92 C 796.46 524.44 796.10 520.87 796.00 517.36 C 791.11 517.41 786.22 517.39 781.33 517.39 C 781.40 521.03 781.06 524.71 781.59 528.34 C 782.55 529.72 784.39 529.59 785.85 530.01 C 785.85 530.81 785.85 532.41 785.85 533.21 C 780.26 533.11 774.67 533.11 769.08 533.21 C 769.08 532.41 769.08 530.81 769.08 530.01 C 770.87 529.67 773.89 529.44 773.55 526.87 C 773.63 519.05 773.78 511.21 773.47 503.40 C 773.35 501.19 770.67 501.38 769.14 500.93 C 769.11 500.12 769.06 498.51 769.03 497.70 Z" />
<path fill="#000000" opacity="1.00" d=" M 860.09 497.76 C 867.86 498.02 875.73 497.12 883.44 498.36 C 888.99 499.27 892.16 505.91 889.87 510.91 C 889.05 512.99 887.03 514.12 885.22 515.22 C 890.00 517.64 889.24 523.59 891.27 527.79 C 891.82 529.69 894.07 529.52 895.61 530.03 C 895.62 530.82 895.65 532.41 895.66 533.20 C 891.97 533.12 888.30 533.11 884.63 533.25 C 882.75 529.14 882.43 524.52 880.61 520.40 C 879.21 517.19 875.22 517.76 872.38 517.65 C 872.43 521.20 872.07 524.80 872.62 528.33 C 873.55 529.72 875.40 529.58 876.85 530.00 C 876.86 530.81 876.86 532.41 876.87 533.21 C 871.28 533.11 865.69 533.11 860.10 533.21 C 860.11 532.41 860.11 530.81 860.11 530.01 C 861.85 529.64 864.84 529.48 864.56 526.97 C 864.70 519.35 864.70 511.70 864.56 504.08 C 864.82 501.54 861.90 501.27 860.11 500.99 C 860.10 500.18 860.10 498.57 860.09 497.76 M 872.33 502.07 C 872.36 505.88 872.36 509.70 872.35 513.53 C 875.21 513.34 878.48 513.92 880.93 512.04 C 883.34 509.45 883.11 504.03 879.52 502.56 C 877.19 501.83 874.72 502.12 872.33 502.07 Z" />
<path fill="#000000" opacity="1.00" d=" M 901.81 497.70 C 907.44 497.83 913.09 497.84 918.73 497.69 C 918.70 498.50 918.65 500.10 918.62 500.91 C 917.32 501.13 916.07 501.46 914.86 501.90 C 913.96 503.41 914.25 505.26 914.15 506.95 C 914.19 512.97 914.16 518.99 914.16 525.01 C 914.24 526.33 914.05 527.85 914.90 529.00 C 916.12 529.48 917.42 529.77 918.71 530.13 C 918.72 530.87 918.75 532.36 918.76 533.10 C 913.11 533.22 907.46 533.07 901.81 533.21 C 901.82 532.41 901.83 530.82 901.83 530.02 C 903.57 529.64 906.59 529.58 906.36 527.01 C 906.52 519.35 906.54 511.66 906.36 504.00 C 906.62 501.36 903.63 501.28 901.84 500.91 C 901.83 500.10 901.82 498.50 901.81 497.70 Z" />
<path fill="#000000" opacity="1.00" d=" M 925.56 508.75 C 925.61 505.07 925.62 501.39 925.63 497.71 C 936.34 498.07 947.05 497.92 957.76 497.81 C 957.62 501.47 957.62 505.13 957.73 508.79 C 956.42 508.76 955.12 508.74 953.84 508.73 C 953.49 506.71 954.25 503.97 952.15 502.74 C 950.02 502.12 947.76 502.42 945.58 502.41 C 945.76 510.59 945.46 518.78 945.72 526.96 C 945.63 529.85 949.18 529.57 951.13 529.99 C 951.13 530.80 951.14 532.40 951.14 533.21 C 944.93 533.12 938.72 533.09 932.51 533.23 C 932.50 532.42 932.48 530.80 932.47 529.99 C 934.34 529.55 938.00 529.89 937.78 527.00 C 938.02 518.79 937.73 510.57 937.91 502.36 C 935.43 502.57 932.52 501.78 930.40 503.33 C 929.59 505.01 929.77 506.96 929.55 508.78 C 928.21 508.76 926.87 508.75 925.56 508.75 Z" />
<path fill="#000000" opacity="1.00" d=" M 962.81 497.70 C 968.13 497.83 973.47 497.84 978.80 497.69 C 978.78 498.52 978.74 500.17 978.71 500.99 C 977.85 501.18 976.11 501.57 975.24 501.76 C 976.65 505.67 978.72 509.31 980.20 513.21 C 982.05 509.41 984.73 505.92 985.50 501.69 C 984.42 501.41 983.35 501.14 982.29 500.87 C 982.35 499.79 982.42 498.72 982.51 497.66 C 987.58 497.87 992.66 497.82 997.74 497.70 C 998.15 499.89 997.07 501.46 994.92 501.85 C 991.36 506.71 988.44 512.00 985.13 517.03 C 982.78 520.16 983.64 524.33 983.89 527.95 C 984.49 529.83 986.74 529.52 988.25 530.02 C 988.26 530.82 988.27 532.42 988.28 533.21 C 982.66 533.11 977.04 533.10 971.42 533.22 C 971.43 532.42 971.44 530.82 971.44 530.02 C 973.08 529.55 976.17 529.66 975.83 527.08 C 975.84 523.56 976.69 519.59 974.47 516.54 C 971.77 512.19 969.38 507.66 966.62 503.36 C 965.85 501.94 964.26 501.43 962.91 500.79 C 962.88 500.02 962.83 498.48 962.81 497.70 Z" />
</g>
<g id="#0080c1ff">
<path fill="#0080c1" opacity="1.00" d=" M 203.11 224.89 C 275.66 198.35 352.34 184.85 429.06 177.73 C 425.95 179.02 422.76 180.13 419.67 181.46 C 419.54 181.56 419.29 181.75 419.17 181.85 C 419.12 194.13 419.11 206.41 419.13 218.69 C 439.86 218.56 460.61 219.12 481.33 218.38 C 503.86 217.32 527.74 211.51 544.09 194.97 C 529.75 189.05 515.30 183.42 500.87 177.72 C 543.75 181.59 586.45 187.73 628.56 196.78 C 667.66 205.25 706.28 216.32 743.41 231.32 C 775.74 244.31 806.99 260.35 835.30 280.75 C 861.77 299.86 885.71 323.06 903.10 350.85 C 913.84 367.89 929.62 381.65 947.87 390.16 C 964.09 397.67 982.05 401.99 1000.00 400.66 L 1000.00 421.62 C 931.65 421.62 863.31 421.63 794.97 421.61 C 794.89 414.66 794.94 407.71 794.93 400.76 C 800.50 400.74 806.21 401.08 811.62 399.45 C 816.26 398.20 820.40 395.64 824.20 392.76 C 812.28 364.33 791.10 340.97 768.23 320.81 C 752.20 306.77 734.94 294.19 717.10 282.55 C 706.41 302.70 695.70 322.83 685.01 342.98 C 681.41 349.98 676.74 356.85 676.27 364.95 C 674.92 378.45 682.93 392.20 695.32 397.71 C 701.91 400.97 709.42 400.91 716.60 400.74 C 716.57 407.70 716.57 414.66 716.60 421.62 C 705.28 421.70 693.95 421.45 682.64 421.76 C 686.97 416.12 687.10 408.34 685.31 401.73 C 684.65 399.71 683.72 396.80 681.10 396.95 C 665.74 396.59 649.67 394.97 636.27 386.80 C 633.93 385.66 633.08 383.10 631.99 380.95 C 625.87 368.01 619.54 355.18 613.43 342.24 C 629.80 311.60 646.04 280.90 662.33 250.22 C 637.37 236.87 611.87 224.56 586.04 212.99 C 568.54 226.10 547.00 232.37 525.61 235.44 C 538.39 240.47 549.11 249.76 556.89 260.97 C 563.88 270.61 568.54 281.63 573.73 292.28 C 586.23 318.17 598.77 344.04 611.21 369.96 C 615.41 378.81 620.16 387.88 628.10 393.96 C 636.86 400.77 648.19 403.10 659.05 403.57 C 661.28 403.75 663.62 403.47 665.78 404.17 C 669.05 408.80 668.29 414.90 666.88 420.07 C 641.93 420.24 616.98 420.10 592.03 420.15 C 585.83 420.30 579.73 417.93 574.92 414.10 C 571.17 411.15 569.71 406.45 567.73 402.31 C 549.95 363.43 532.12 324.57 514.31 285.71 C 507.76 271.87 500.09 257.82 487.79 248.25 C 478.79 241.19 467.24 238.38 455.99 238.03 C 443.73 237.65 431.47 237.93 419.21 237.85 C 419.18 282.56 419.20 327.27 419.20 371.97 C 419.20 379.64 420.38 388.22 426.39 393.64 C 433.93 400.55 444.56 401.69 454.21 403.32 C 459.79 404.28 465.53 403.45 471.18 403.90 C 471.92 405.75 472.60 407.62 473.09 409.56 C 473.18 410.08 473.37 411.13 473.46 411.65 C 473.45 412.90 473.41 414.16 473.34 415.42 C 473.20 415.88 472.94 416.81 472.80 417.27 C 472.25 418.78 471.57 420.24 470.88 421.69 C 418.59 421.73 366.29 421.68 314.00 421.70 C 312.74 421.69 311.22 421.63 310.77 420.18 C 308.50 415.66 308.32 410.05 310.40 405.42 C 310.86 403.80 312.60 403.76 313.98 403.73 C 323.82 403.56 333.81 403.08 343.29 400.24 C 349.08 398.47 354.89 395.50 358.33 390.33 C 361.70 385.37 362.40 379.21 362.62 373.38 C 363.09 345.92 362.69 318.46 362.83 291.00 C 362.70 262.28 363.08 233.54 362.63 204.83 C 362.29 205.00 361.61 205.34 361.27 205.51 C 339.95 214.32 319.09 224.23 298.36 234.33 C 262.56 252.12 227.47 271.61 194.83 294.76 C 163.04 317.59 132.41 343.97 112.66 378.28 C 112.44 378.62 112.00 379.29 111.78 379.63 C 113.53 379.77 115.28 379.88 117.04 379.90 C 146.69 379.88 176.34 379.89 206.00 379.89 C 211.69 379.92 217.39 379.73 223.07 380.11 C 223.24 379.95 223.58 379.62 223.74 379.46 C 234.54 379.53 246.52 377.39 254.31 369.26 C 261.24 361.93 263.57 351.65 265.01 341.97 C 266.14 333.65 266.56 325.25 266.80 316.87 C 277.65 316.89 288.50 316.87 299.36 316.87 C 299.38 351.77 299.32 386.67 299.39 421.57 C 199.59 421.63 99.80 421.59 0.00 421.59 L 0.00 420.83 C 0.80 417.54 1.54 414.23 2.18 410.91 C 7.89 383.21 20.73 357.27 37.85 334.87 C 56.34 310.78 79.51 290.57 104.69 273.75 C 135.25 253.35 168.70 237.60 203.11 224.89 Z" />
</g>
</svg>
